<svg 
 xmlns="http://www.w3.org/2000/svg"
 xmlns:xlink="http://www.w3.org/1999/xlink"
 width="31px" height="26px">
<path fill-rule="evenodd"
 d="M4.214,20.032 L4.214,20.032 C4.214,20.027 4.214,20.022 4.214,20.032 L4.214,20.032 ZM9.329,15.894 C7.275,16.082 5.194,16.048 3.048,15.802 C3.384,14.539 3.669,13.375 4.023,12.232 C4.091,12.013 4.407,11.796 4.654,11.715 C5.255,11.520 5.877,11.321 6.502,11.273 C8.252,11.137 10.005,11.045 11.760,10.969 C11.962,10.545 12.161,10.121 12.357,9.695 C11.744,9.617 11.128,9.563 10.515,9.490 C9.188,9.412 8.003,9.506 6.588,9.825 C6.084,9.945 5.576,10.051 5.077,10.189 C3.752,10.557 2.748,11.221 2.491,12.680 C2.337,13.548 2.066,14.397 1.818,15.247 C1.770,15.411 1.582,15.666 1.467,15.661 C0.516,15.625 0.199,16.218 0.013,16.967 C-0.017,17.140 0.023,17.292 0.054,17.417 C0.423,17.480 0.793,17.542 1.053,17.585 C1.154,18.917 1.252,20.239 1.357,21.561 C1.414,22.273 1.449,22.989 1.562,23.693 C1.616,24.018 1.785,24.517 1.980,24.628 C2.131,24.792 4.547,24.579 4.983,24.371 C5.183,24.276 5.192,23.229 5.308,22.596 L8.588,22.316 C8.720,20.617 8.883,18.920 9.050,17.224 C9.093,16.774 9.235,16.333 9.332,15.894 C9.331,15.894 9.330,15.894 9.329,15.894 L9.329,15.894 ZM5.729,19.400 C5.675,19.594 5.405,19.797 5.185,19.867 C4.881,19.964 4.540,20.005 4.214,20.032 C4.215,20.038 4.215,20.043 4.214,20.032 C3.734,20.024 3.250,20.052 2.775,19.998 C2.159,19.926 1.949,19.500 2.061,18.695 C2.137,18.144 2.568,18.083 2.967,18.175 C3.769,18.358 4.561,18.598 5.334,18.871 C5.520,18.936 5.767,19.261 5.729,19.400 L5.729,19.400 ZM25.849,20.315 L25.849,20.315 C25.849,20.302 25.849,20.308 25.849,20.315 L25.849,20.315 ZM14.487,3.029 L12.211,2.112 L12.710,6.815 L14.487,3.029 ZM8.121,-0.011 L5.589,2.097 L11.557,6.761 L8.121,-0.011 ZM30.979,16.571 C30.752,15.657 30.365,14.932 29.204,14.977 C29.063,14.982 28.833,14.671 28.775,14.471 C28.472,13.434 28.141,12.396 27.953,11.336 C27.639,9.555 26.413,8.744 24.795,8.295 C24.186,8.127 23.565,7.997 22.950,7.851 C21.222,7.460 19.776,7.346 18.155,7.441 C17.040,7.574 15.914,7.656 14.812,7.856 C13.995,8.003 13.372,8.482 13.015,9.263 C12.448,10.498 11.861,11.724 11.249,12.937 C11.145,13.140 10.842,13.426 10.689,13.396 C9.650,13.191 9.105,13.718 8.709,14.533 C8.609,14.784 8.629,15.046 8.648,15.219 C9.074,15.375 9.501,15.529 9.893,15.671 C9.797,16.110 9.654,16.551 9.611,17.001 C9.410,19.053 9.212,21.105 9.071,23.162 C9.045,23.529 9.211,24.117 9.354,24.223 C9.475,24.475 12.660,24.735 12.923,24.590 C13.797,24.136 13.367,23.214 13.696,22.522 L24.513,23.446 C24.655,24.219 24.666,25.497 24.910,25.614 C25.442,25.867 28.393,26.127 28.577,25.927 C28.814,25.791 29.022,25.182 29.087,24.785 C29.226,23.925 29.269,23.051 29.338,22.182 C29.466,20.567 29.586,18.952 29.710,17.327 C30.027,17.274 30.478,17.198 30.930,17.121 C30.968,16.969 31.016,16.782 30.979,16.571 L30.979,16.571 ZM14.493,19.208 C14.032,19.265 13.557,19.215 12.966,19.212 C12.458,19.108 11.823,19.031 11.226,18.841 C10.410,18.583 10.648,17.912 10.719,17.333 C10.780,16.837 11.130,16.490 11.576,16.669 C12.693,17.114 13.795,17.621 14.829,18.224 C15.303,18.502 15.068,19.135 14.493,19.208 L14.493,19.208 ZM12.648,13.900 C13.169,12.701 13.680,11.639 14.090,10.544 C14.443,9.604 15.125,9.184 16.080,9.224 C18.408,9.320 20.734,9.437 23.055,9.618 C23.819,9.677 24.578,9.920 25.312,10.158 C25.614,10.257 26.000,10.522 26.082,10.789 C26.514,12.185 26.862,13.607 27.273,15.149 C22.212,15.729 17.444,15.346 12.648,13.900 L12.648,13.900 ZM27.606,20.272 C27.027,20.339 26.435,20.305 25.849,20.315 C25.848,20.328 25.848,20.322 25.848,20.315 C25.451,20.281 25.034,20.232 24.663,20.113 C24.394,20.027 24.066,19.780 23.999,19.542 C23.953,19.373 24.254,18.976 24.481,18.897 C25.426,18.563 26.392,18.270 27.372,18.047 C27.859,17.935 28.385,18.009 28.479,18.681 C28.615,19.665 28.359,20.185 27.606,20.272 L27.606,20.272 Z"/>
</svg>